<svg width="33" height="33" viewBox="0 0 33 33" fill="none" xmlns="http://www.w3.org/2000/svg">
<circle cx="16.5356" cy="16.6465" r="16" fill="white"/>
<circle cx="16.5356" cy="16.6465" r="13.375" fill="#1CAB04"/>
<circle cx="16.5356" cy="16.6465" r="9.9375" fill="white"/>
<g clip-path="url(#clip0_607_9883)">
<path d="M20.8606 11.6528C20.7356 11.2595 20.3856 10.9795 19.9731 10.9795H13.0981C12.6856 10.9795 12.3419 11.2595 12.2106 11.6528L10.9106 15.6462V20.9795C10.9106 21.3462 11.1919 21.6462 11.5356 21.6462H12.1606C12.5044 21.6462 12.7856 21.3462 12.7856 20.9795V20.3128H20.2856V20.9795C20.2856 21.3462 20.5669 21.6462 20.9106 21.6462H21.5356C21.8794 21.6462 22.1606 21.3462 22.1606 20.9795V15.6462L20.8606 11.6528ZM13.0981 18.3128C12.5794 18.3128 12.1606 17.8662 12.1606 17.3128C12.1606 16.7595 12.5794 16.3128 13.0981 16.3128C13.6169 16.3128 14.0356 16.7595 14.0356 17.3128C14.0356 17.8662 13.6169 18.3128 13.0981 18.3128ZM19.9731 18.3128C19.4544 18.3128 19.0356 17.8662 19.0356 17.3128C19.0356 16.7595 19.4544 16.3128 19.9731 16.3128C20.4919 16.3128 20.9106 16.7595 20.9106 17.3128C20.9106 17.8662 20.4919 18.3128 19.9731 18.3128ZM12.1606 14.9795L13.0981 11.9795H19.9731L20.9106 14.9795H12.1606Z" fill="#888888"/>
</g>
<line x1="9.50439" y1="15.8125" x2="23.5669" y2="15.8125" stroke="#828880"/>
<defs>
<clipPath id="clip0_607_9883">
<rect width="15" height="16" fill="white" transform="translate(9.03564 7.64648)"/>
</clipPath>
</defs>
</svg>
