<svg width="22" height="21" viewBox="0 0 22 21" fill="none" xmlns="http://www.w3.org/2000/svg">
<path fill-rule="evenodd" clip-rule="evenodd" d="M11.0001 0.34375C11.3995 0.34375 11.7606 0.581399 11.9186 0.948223L14.3875 6.68138L20.603 7.25785C21.0007 7.29474 21.3383 7.56472 21.4617 7.94456C21.5851 8.32441 21.4707 8.74126 21.1707 9.00486L16.4811 13.1246L17.8535 19.2141C17.9413 19.6037 17.7889 20.0082 17.4657 20.2429C17.1426 20.4777 16.7108 20.4977 16.3674 20.2938L11.0001 17.1068L5.63281 20.2938C5.2894 20.4977 4.85758 20.4777 4.53447 20.2429C4.21135 20.0082 4.05891 19.6037 4.14672 19.2141L5.51916 13.1246L0.829555 9.00486C0.529501 8.74126 0.415067 8.32441 0.538486 7.94456C0.661905 7.56472 0.999506 7.29474 1.39719 7.25785L7.6127 6.68138L10.0817 0.948223C10.2396 0.581399 10.6007 0.34375 11.0001 0.34375ZM11.0001 3.87202L9.21475 8.0178C9.06998 8.35398 8.75311 8.5842 8.38865 8.618L3.89407 9.03486L7.28523 12.014C7.56022 12.2555 7.68125 12.628 7.60078 12.9851L6.60833 17.3885L10.4895 15.0839C10.8043 14.897 11.1959 14.897 11.5107 15.0839L15.3919 17.3885L14.3994 12.9851C14.319 12.628 14.44 12.2555 14.715 12.014L18.1061 9.03486L13.6116 8.618C13.2471 8.5842 12.9302 8.35398 12.7855 8.0178L11.0001 3.87202Z" fill="white"/>
</svg>
