<svg width="278" height="67" viewBox="0 0 278 67" fill="none" xmlns="http://www.w3.org/2000/svg">
<path d="M39.0898 19.75V23.8809H27.5586V45.3438H22.3027V19.75H39.0898ZM40.9355 26.3242H45.998L45.8398 32.6875C45.793 34.7266 45.5586 36.4785 45.1367 37.9434C44.7148 39.4082 44.1523 40.6387 43.4492 41.6348C42.7461 42.6309 41.9434 43.4277 41.041 44.0254C40.1504 44.6113 39.2129 45.0508 38.2285 45.3438H37.2793L37.2266 41.4414L37.7539 41.3887C38.3516 40.7676 38.8438 40.1641 39.2305 39.5781C39.6172 38.9805 39.916 38.3535 40.127 37.6973C40.3379 37.041 40.4902 36.3086 40.584 35.5C40.6895 34.6914 40.7539 33.7539 40.7773 32.6875L40.9355 26.3242ZM42.3066 26.3242H54.9102V45.3438H49.8652V30.3848H42.3066V26.3242ZM36.1191 41.3887H57.6348V51.0566H52.5723V45.3438H41.3047V51.0566H36.1191V41.3887ZM68.9727 45.6953C67.4961 45.6953 66.1719 45.4609 65 44.9922C63.8281 44.5117 62.832 43.8496 62.0117 43.0059C61.2031 42.1621 60.582 41.1836 60.1484 40.0703C59.7148 38.9453 59.498 37.75 59.498 36.4844V35.7812C59.498 34.3398 59.7031 33.0215 60.1133 31.8262C60.5234 30.6309 61.1094 29.5938 61.8711 28.7148C62.6445 27.8359 63.582 27.1621 64.6836 26.6934C65.7852 26.2129 67.0273 25.9727 68.4102 25.9727C69.7578 25.9727 70.9531 26.1953 71.9961 26.6406C73.0391 27.0859 73.9121 27.7188 74.6152 28.5391C75.3301 29.3594 75.8691 30.3438 76.2324 31.4922C76.5957 32.6289 76.7773 33.8945 76.7773 35.2891V37.3984H61.6602V34.0234H71.8027V33.6367C71.8027 32.9336 71.6738 32.3066 71.416 31.7559C71.1699 31.1934 70.7949 30.748 70.291 30.4199C69.7871 30.0918 69.1426 29.9277 68.3574 29.9277C67.6895 29.9277 67.1152 30.0742 66.6348 30.3672C66.1543 30.6602 65.7617 31.0703 65.457 31.5977C65.1641 32.125 64.9414 32.7461 64.7891 33.4609C64.6484 34.1641 64.5781 34.9375 64.5781 35.7812V36.4844C64.5781 37.2461 64.6836 37.9492 64.8945 38.5938C65.1172 39.2383 65.4277 39.7949 65.8262 40.2637C66.2363 40.7324 66.7285 41.0957 67.3027 41.3535C67.8887 41.6113 68.5508 41.7402 69.2891 41.7402C70.2031 41.7402 71.0527 41.5645 71.8379 41.2129C72.6348 40.8496 73.3203 40.3047 73.8945 39.5781L76.3555 42.25C75.957 42.8242 75.4121 43.375 74.7207 43.9023C74.041 44.4297 73.2207 44.8633 72.2598 45.2031C71.2988 45.5312 70.2031 45.6953 68.9727 45.6953Z" fill="white"/>
<g clip-path="url(#clip0_636_8478)">
<path d="M107.38 24.3588C107.08 23.4738 106.24 22.8438 105.25 22.8438H88.75C87.76 22.8438 86.935 23.4738 86.62 24.3588L83.5 33.3438V45.3438C83.5 46.1688 84.175 46.8438 85 46.8438H86.5C87.325 46.8438 88 46.1688 88 45.3438V43.8438H106V45.3438C106 46.1688 106.675 46.8438 107.5 46.8438H109C109.825 46.8438 110.5 46.1688 110.5 45.3438V33.3438L107.38 24.3588ZM88.75 39.3438C87.505 39.3438 86.5 38.3387 86.5 37.0938C86.5 35.8488 87.505 34.8438 88.75 34.8438C89.995 34.8438 91 35.8488 91 37.0938C91 38.3387 89.995 39.3438 88.75 39.3438ZM105.25 39.3438C104.005 39.3438 103 38.3387 103 37.0938C103 35.8488 104.005 34.8438 105.25 34.8438C106.495 34.8438 107.5 35.8488 107.5 37.0938C107.5 38.3387 106.495 39.3438 105.25 39.3438ZM86.5 31.8438L88.75 25.0938H105.25L107.5 31.8438H86.5Z" fill="white"/>
</g>
<path d="M139.133 19.75V45.3438H133.859V23.8809H123.576V45.3438H118.303V19.75H139.133ZM153.688 41.0547V32.582C153.688 31.9727 153.588 31.4512 153.389 31.0176C153.189 30.5723 152.879 30.2266 152.457 29.9805C152.047 29.7344 151.514 29.6113 150.857 29.6113C150.295 29.6113 149.809 29.7109 149.398 29.9102C148.988 30.0977 148.672 30.373 148.449 30.7363C148.227 31.0879 148.115 31.5039 148.115 31.9844H143.053C143.053 31.1758 143.24 30.4082 143.615 29.6816C143.99 28.9551 144.535 28.3164 145.25 27.7656C145.965 27.2031 146.814 26.7637 147.799 26.4473C148.795 26.1309 149.908 25.9727 151.139 25.9727C152.615 25.9727 153.928 26.2188 155.076 26.7109C156.225 27.2031 157.127 27.9414 157.783 28.9258C158.451 29.9102 158.785 31.1406 158.785 32.6172V40.7559C158.785 41.7988 158.85 42.6543 158.979 43.3223C159.107 43.9785 159.295 44.5527 159.541 45.0449V45.3438H154.426C154.18 44.8281 153.992 44.1836 153.863 43.4102C153.746 42.625 153.688 41.8398 153.688 41.0547ZM154.355 33.7598L154.391 36.625H151.561C150.893 36.625 150.312 36.7012 149.82 36.8535C149.328 37.0059 148.924 37.2227 148.607 37.5039C148.291 37.7734 148.057 38.0898 147.904 38.4531C147.764 38.8164 147.693 39.2148 147.693 39.6484C147.693 40.082 147.793 40.4746 147.992 40.8262C148.191 41.166 148.479 41.4355 148.854 41.6348C149.229 41.8223 149.668 41.916 150.172 41.916C150.934 41.916 151.596 41.7637 152.158 41.459C152.721 41.1543 153.154 40.7793 153.459 40.334C153.775 39.8887 153.939 39.4668 153.951 39.0684L155.287 41.2129C155.1 41.6934 154.842 42.1914 154.514 42.707C154.197 43.2227 153.793 43.709 153.301 44.166C152.809 44.6113 152.217 44.9805 151.525 45.2734C150.834 45.5547 150.014 45.6953 149.064 45.6953C147.857 45.6953 146.762 45.4551 145.777 44.9746C144.805 44.4824 144.031 43.8086 143.457 42.9531C142.895 42.0859 142.613 41.1016 142.613 40C142.613 39.0039 142.801 38.1191 143.176 37.3457C143.551 36.5723 144.102 35.9219 144.828 35.3945C145.566 34.8555 146.486 34.4512 147.588 34.1816C148.689 33.9004 149.967 33.7598 151.42 33.7598H154.355ZM167.75 29.9805V52.6562H162.688V26.3242H167.381L167.75 29.9805ZM179.791 35.623V35.9922C179.791 37.375 179.627 38.6582 179.299 39.8418C178.982 41.0254 178.514 42.0566 177.893 42.9355C177.271 43.8027 176.498 44.4824 175.572 44.9746C174.658 45.4551 173.604 45.6953 172.408 45.6953C171.248 45.6953 170.24 45.4609 169.385 44.9922C168.529 44.5234 167.809 43.8672 167.223 43.0234C166.648 42.168 166.186 41.1777 165.834 40.0527C165.482 38.9277 165.213 37.7207 165.025 36.4316V35.4648C165.213 34.082 165.482 32.8164 165.834 31.668C166.186 30.5078 166.648 29.5059 167.223 28.6621C167.809 27.8066 168.523 27.1445 169.367 26.6758C170.223 26.207 171.225 25.9727 172.373 25.9727C173.58 25.9727 174.641 26.2012 175.555 26.6582C176.48 27.1152 177.254 27.7715 177.875 28.627C178.508 29.4824 178.982 30.502 179.299 31.6855C179.627 32.8691 179.791 34.1816 179.791 35.623ZM174.711 35.9922V35.623C174.711 34.8145 174.641 34.0703 174.5 33.3906C174.371 32.6992 174.16 32.0957 173.867 31.5801C173.586 31.0645 173.211 30.666 172.742 30.3848C172.285 30.0918 171.729 29.9453 171.072 29.9453C170.381 29.9453 169.789 30.0566 169.297 30.2793C168.816 30.502 168.424 30.8242 168.119 31.2461C167.814 31.668 167.586 32.1719 167.434 32.7578C167.281 33.3438 167.188 34.0059 167.152 34.7441V37.1875C167.211 38.0547 167.375 38.834 167.645 39.5254C167.914 40.2051 168.33 40.7441 168.893 41.1426C169.455 41.541 170.193 41.7402 171.107 41.7402C171.775 41.7402 172.338 41.5938 172.795 41.3008C173.252 40.9961 173.621 40.5801 173.902 40.0527C174.195 39.5254 174.4 38.916 174.518 38.2246C174.646 37.5332 174.711 36.7891 174.711 35.9922ZM188.334 26.3242V45.3438H183.271V26.3242H188.334ZM200.691 26.3242L192.5 38.2246H187.438L186.822 33.5488H190.18L194.275 26.3242H200.691ZM194.504 45.3438L189.828 37.3105L194.24 34.8672L201.289 45.3438H194.504ZM208.232 38.2773L214.613 26.3242H219.676V45.3438H214.613V33.373L208.232 45.3438H203.17V26.3242H208.232V38.2773ZM236.604 34.0059V37.9434H226.936V34.0059H236.604ZM228.623 26.3242V45.3438H223.561V26.3242H228.623ZM240.031 26.3242V45.3438H234.951V26.3242H240.031ZM256.906 26.3242V30.2969H248.996V45.3438H243.934V26.3242H256.906Z" fill="white"/>
<rect x="1" y="1.34375" width="276" height="64" rx="19" stroke="white" stroke-width="2"/>
<defs>
<clipPath id="clip0_636_8478">
<rect width="36" height="36" fill="white" transform="translate(79 15.3438)"/>
</clipPath>
</defs>
</svg>
