<svg width="24" height="25" viewBox="0 0 24 25" fill="none" xmlns="http://www.w3.org/2000/svg">
<path d="M11 3.34375C15.4183 3.34375 19 6.92547 19 11.3438C19 13.192 18.3733 14.8938 17.3207 16.2483L21.2071 20.1366L19.7929 21.5509L15.9045 17.6645C14.55 18.717 12.8482 19.3438 11 19.3438C6.58172 19.3438 3 15.762 3 11.3438C3 6.92547 6.58172 3.34375 11 3.34375ZM11 5.34375C7.68629 5.34375 5 8.03004 5 11.3438C5 14.6575 7.68629 17.3438 11 17.3438C14.3137 17.3438 17 14.6575 17 11.3438C17 8.03004 14.3137 5.34375 11 5.34375Z" fill="white"/>
</svg>
