<svg width="22" height="22" viewBox="0 0 22 22" fill="none" xmlns="http://www.w3.org/2000/svg">
<path d="M18.4999 11.3438C18.4999 11.1438 18.4999 10.9438 18.4999 10.8438L21.0999 8.94375L20.9999 8.24375C20.9999 8.14375 20.7999 7.24375 20.0999 6.04375C19.3999 4.84375 18.7999 4.34375 18.6999 4.24375L18.1999 3.84375L15.1999 5.14375C14.8999 4.94375 14.5999 4.74375 14.2999 4.64375L13.8999 1.34375L13.2999 1.14375C13.1999 1.14375 12.2999 0.84375 10.9999 0.84375C9.6999 0.84375 8.7999 1.14375 8.6999 1.14375L8.0999 1.34375L7.6999 4.64375C7.3999 4.74375 7.0999 4.94375 6.7999 5.14375L3.7999 3.84375L3.2999 4.24375C3.1999 4.34375 2.5999 4.94375 1.8999 6.14375C1.2999 7.24375 0.999902 8.14375 0.999902 8.24375L0.899902 8.84375L3.4999 10.7437C3.4999 10.9437 3.4999 11.1437 3.4999 11.2437C3.4999 11.3438 3.4999 11.6437 3.4999 11.7437L0.899902 13.6438L0.999902 14.4438C0.999902 14.5438 1.1999 15.4437 1.8999 16.6437C2.5999 17.7437 3.1999 18.4438 3.2999 18.4438L3.7999 18.8438L6.7999 17.5438C7.0999 17.7438 7.3999 17.9438 7.6999 18.0438L8.0999 21.3438L8.6999 21.5438C8.7999 21.5438 9.6999 21.8438 10.9999 21.8438C12.2999 21.8438 13.1999 21.5438 13.2999 21.5438L13.8999 21.3438L14.2999 18.1437C14.5999 17.9437 14.8999 17.8438 15.1999 17.6437L18.1999 18.9438L18.6999 18.5438C18.7999 18.4438 19.4999 17.8438 20.0999 16.7437C20.6999 15.6437 20.9999 14.7437 20.9999 14.5437L21.0999 13.9438L18.4999 12.0437C18.4999 11.7437 18.4999 11.5437 18.4999 11.3438ZM18.7999 14.6438C18.6999 14.9438 18.4999 15.2437 18.2999 15.6437C18.0999 16.0437 17.8999 16.3438 17.6999 16.5438L14.8999 15.3438L14.3999 15.7437C13.9999 16.1437 13.4999 16.3438 12.8999 16.5438L12.2999 16.7437L11.9999 19.8438C11.3999 19.9438 10.3999 19.9438 9.7999 19.8438L9.4999 16.7437L8.9999 16.4438C8.4999 16.2438 7.9999 15.9437 7.4999 15.6437L6.9999 15.2437L4.1999 16.4438C3.9999 16.2438 3.7999 15.9438 3.5999 15.5438C3.3999 15.1438 3.1999 14.8438 3.0999 14.5437L5.5999 12.7437L5.4999 12.1438C5.4999 11.8438 5.3999 11.5437 5.3999 11.3438C5.3999 11.1438 5.3999 10.7437 5.4999 10.5437L5.5999 9.94375L3.1999 8.04375C3.2999 7.74375 3.4999 7.44375 3.6999 7.04375C3.8999 6.64375 4.0999 6.34375 4.2999 6.14375L7.0999 7.34375L7.5999 6.94375C7.9999 6.74375 8.4999 6.44375 8.9999 6.24375L9.5999 6.04375L9.8999 2.94375C10.4999 2.84375 11.4999 2.84375 12.0999 2.94375L12.3999 6.04375L12.9999 6.24375C13.4999 6.44375 13.9999 6.74375 14.4999 7.04375L14.9999 7.44375L17.7999 6.24375C17.9999 6.44375 18.1999 6.74375 18.3999 7.14375C18.5999 7.54375 18.7999 7.84375 18.8999 8.14375L16.3999 9.94375L16.4999 10.5437C16.4999 10.8438 16.5999 11.1438 16.5999 11.3438C16.5999 11.5437 16.5999 11.9438 16.4999 12.1438L16.3999 12.7437L18.7999 14.6438Z" fill="white"/>
<path d="M10.9999 13.3438C12.1045 13.3438 12.9999 12.4483 12.9999 11.3438C12.9999 10.2392 12.1045 9.34375 10.9999 9.34375C9.89533 9.34375 8.9999 10.2392 8.9999 11.3438C8.9999 12.4483 9.89533 13.3438 10.9999 13.3438Z" fill="white"/>
</svg>
